<svg xmlns="http://www.w3.org/2000/svg" width="264" height="264" fill="none" viewBox="0 0 264 264"><mask id="a" fill="#fff"><path d="M164.944 143.781c5.313 16.566-3.809 34.302-20.375 39.615-16.566 5.313-34.302-3.81-39.615-20.375-5.313-16.566 3.81-34.303 20.375-39.615 16.566-5.313 34.303 3.809 39.615 20.375Zm-50.726 16.268c3.672 11.45 15.931 17.755 27.38 14.083 11.449-3.672 17.754-15.931 14.082-27.38-3.672-11.449-15.93-17.754-27.379-14.082-11.45 3.672-17.755 15.93-14.083 27.379Z"/></mask><path fill="#0A0C0E" stroke="#000" stroke-width="5" d="M164.944 143.781c5.313 16.566-3.809 34.302-20.375 39.615-16.566 5.313-34.302-3.81-39.615-20.375-5.313-16.566 3.81-34.303 20.375-39.615 16.566-5.313 34.303 3.809 39.615 20.375Zm-50.726 16.268c3.672 11.45 15.931 17.755 27.38 14.083 11.449-3.672 17.754-15.931 14.082-27.38-3.672-11.449-15.93-17.754-27.379-14.082-11.45 3.672-17.755 15.93-14.083 27.379Z" mask="url(#a)"/><path fill="#fff" stroke="#000" stroke-width="2.5" d="m106.651 174.859 4.878-5.02 7.89 7.664-4.878 5.021z"/><path fill="#0A0C0E" d="m80.264 207.192 29.34-33.309 8.254 7.27-29.34 33.31z"/><path fill="#0A0C0E" fill-rule="evenodd" d="m128.399 135.228 55.91-17.932c.694-.222 1.086-.936.875-1.594-.211-.658-.945-1.011-1.639-.789l-55.91 17.932c-.694.222-1.085.936-.874 1.594.21.658.945 1.011 1.638.789ZM131.265 144.164l55.91-17.932c.694-.222 1.086-.936.875-1.594-.211-.658-.945-1.011-1.639-.789l-55.91 17.932c-.694.222-1.085.936-.874 1.594.21.658.945 1.011 1.638.789ZM137.57 163.823l28.898-9.267c.693-.223 1.085-.937.874-1.595-.211-.658-.945-1.011-1.639-.788l-28.897 9.267c-.694.223-1.085.937-.874 1.595.211.657.945 1.011 1.638.788Z" clip-rule="evenodd"/><mask id="b" width="129" height="146" x="90" y="46" maskUnits="userSpaceOnUse" style="mask-type:alpha"><path fill="#fff" d="m90.611 75.73 90.462-29.012 37.258 116.172-90.462 29.012L90.611 75.731Z"/></mask><g mask="url(#b)"><path fill="#0A0C0E" fill-rule="evenodd" d="M175.819 48.403 95.865 74.045c-2.897.93-4.537 3.921-3.655 6.67.21.658.945 1.011 1.638.789.694-.223 1.085-.937.874-1.595-.46-1.434.396-2.996 1.908-3.48l79.953-25.643c1.512-.485 3.115.288 3.575 1.721l27.688 86.332c-.076.08-.146.167-.201.268l-14.99 27.337a7.259 7.259 0 0 1-.205.35 4.856 4.856 0 0 0-.212-1.011l-4.84-15.093c-.457-1.423.393-2.973 1.894-3.454l10.47-3.358c.695-.223 1.086-.937.875-1.595-.211-.657-.945-1.011-1.639-.788l-10.47 3.358c-2.886.925-4.521 3.906-3.643 6.643l4.841 15.093c.456 1.423-.393 2.973-1.895 3.454l-3.979 1.276-51.493 16.515c-1.512.485-3.116-.287-3.575-1.721L97.327 88.031c-.21-.658-.944-1.011-1.638-.788-.694.222-1.085.936-.874 1.594l31.456 98.082c.881 2.748 3.955 4.227 6.852 3.298l51.494-16.515 4.661-1.495.497-.159c2.472-.793 4.503-2.451 5.719-4.67l15.058-27.477a1.22 1.22 0 0 0 .098-.96l-27.979-87.24c-.881-2.748-3.955-4.227-6.852-3.298Z" clip-rule="evenodd"/></g><path fill="#0A0C0E" fill-rule="evenodd" d="M173.01 82.064 117.1 99.995c-.694.223-1.428-.13-1.639-.788-.211-.658.181-1.372.874-1.595l55.911-17.931c.693-.222 1.427.13 1.638.789.211.657-.181 1.372-.874 1.594ZM175.876 91l-55.91 17.932c-.694.222-1.428-.131-1.639-.789-.211-.658.181-1.372.874-1.594l55.911-17.931c.693-.223 1.427.13 1.638.788.211.658-.181 1.372-.874 1.594ZM158.387 106.502l-36.451 11.691c-.452.145-1.025-.378-1.278-1.166-.252-.788-.091-1.546.361-1.691l36.451-11.69c.452-.145 1.025.377 1.278 1.165.252.789.091 1.546-.361 1.691ZM163.64 147.352l-28.898 9.268c-.693.223-1.427-.131-1.638-.788-.211-.658.18-1.372.874-1.595l28.897-9.268c.694-.222 1.428.131 1.639.789.211.658-.181 1.372-.874 1.594Z" clip-rule="evenodd"/><rect width="31" height="6" x="110.122" y="84.175" fill="#574CFA" rx="1" transform="rotate(-17.782 110.122 84.175)"/><mask id="c" fill="#fff"><path d="M164.98 140.619c5.313 16.566-3.809 34.302-20.375 39.615-16.566 5.313-34.302-3.81-39.615-20.376-5.313-16.565 3.81-34.302 20.376-39.615 16.565-5.312 34.302 3.81 39.614 20.376Zm-50.726 16.268c3.672 11.45 15.931 17.755 27.38 14.083 11.449-3.672 17.754-15.931 14.082-27.38-3.672-11.45-15.93-17.754-27.379-14.082-11.45 3.672-17.755 15.93-14.083 27.379Z"/></mask><path fill="#fff" stroke="#000" stroke-width="5" d="M164.98 140.619c5.313 16.566-3.809 34.302-20.375 39.615-16.566 5.313-34.302-3.81-39.615-20.376-5.313-16.565 3.81-34.302 20.376-39.615 16.565-5.312 34.302 3.81 39.614 20.376Zm-50.726 16.268c3.672 11.45 15.931 17.755 27.38 14.083 11.449-3.672 17.754-15.931 14.082-27.38-3.672-11.45-15.93-17.754-27.379-14.082-11.45 3.672-17.755 15.93-14.083 27.379Z" mask="url(#c)"/><path fill="#574CFA" d="m80.014 202.575 27.1-30.766 8.255 7.27-27.1 30.767z"/><path stroke="#000" stroke-linecap="round" stroke-width="2.5" d="m82.993 78.173 4.726 1.635M86.928 93.714l2.892-4.078"/></svg>