<svg xmlns="http://www.w3.org/2000/svg" width="264" height="264" fill="none" viewBox="0 0 264 264"><path fill="#574CFA" stroke="#574CFA" stroke-linecap="round" stroke-linejoin="round" stroke-width="2" d="m89.795 167.48 60 20v20l-60-20v-20Z"/><path stroke="#000" stroke-linecap="round" stroke-linejoin="round" stroke-width="2" d="M156.635 76.77c4.4 10.84 6.26 19.7 7.49 31.34l4.86 6.23 5.49 3.42.52 2.93c.34 1.93-.67 3.85-2.46 4.66l-4.3 1.95-4.92.81a2.74 2.74 0 0 1-2.07-4.91l1.79-1.32"/><path stroke="#000" stroke-linecap="round" stroke-linejoin="round" stroke-width="2" d="m119.125 114.33 19.4 27.14s4.62-9.8 16.2-11.84l8.6-1.52"/><path stroke="#000" stroke-linecap="round" stroke-linejoin="round" stroke-width="2" d="m168.235 127.29.94 9.19-17.66 3.11s3.9 7.15 15.28 8.43l.32.69c2.28 4.94 2.43 10.6.4 15.65l-26.64 4.7c-4.52.8-9.17.39-13.49-1.18a21.363 21.363 0 0 1-10.37-8.06l-6.91-10.13M142.645 103.62c3.45-4.68 8.96-7.05 14.35-6.19"/><path fill="#000" d="m116.625 64.61 39.39-6.95s7.66 9.72-.02 18.78"/><path stroke="#000" stroke-linecap="round" stroke-linejoin="round" stroke-width="2" d="m116.625 64.61 39.39-6.95s7.66 9.72-.02 18.78M149.795 167.48v20l-8.57 17.15M148.505 111.71c.26-1.9 1.58-3.62 3.36-4.35 1.78-.73 3.92-.45 5.45.72M162.975 156.59c.22 2.97-.23 5.99-1.37 8.81M157.065 157.63c.22 2.97-.23 5.99-1.37 8.81M151.155 158.68c.22 2.97-.23 5.99-1.37 8.81M107.155 117.06c.66-1.41 1.74-2.41 3.05-2.64 2.63-.46 5.42 2.3 6.07 6.03l-1.83 1.26c-1.2.83-1.81 2.28-1.56 3.72l.29 1.67M113.515 132.99c-5.42.96-10.74-3.53-11.89-10.02M183.535 141.34l7.69-1.36M182.795 131.91l6.76-3.9M181.005 150.44l7.7 1.36"/><path fill="#000" stroke="#000" stroke-linecap="round" stroke-linejoin="round" stroke-width="2" d="M156.635 76.77s-8.34-20.44-31.78-20.77c-6.86.42-13.65.75-20.48 1.96-9.73 1.72-16.64 6.78-21.48 12.45-8.34 9.77-11.45 22.93-9.17 35.58 1.92 10.69 5.87 20.53 9.91 28.46l10.93 8.84 4.04 3.27 9.79-14.25c-1.22-.56-2.36-1.38-3.34-2.41l-.04.05c-1.66-1.78-2.89-4.16-3.37-6.91v-.03c-1.13-6.51 2.31-12.56 7.7-13.51 3.77-.66 7.49 1.35 9.78 4.83l.83 1.16 2.75-4.01-4.91-27.87 38.84-6.85v.01Z"/><path stroke="#fff" stroke-linecap="round" stroke-linejoin="round" stroke-width="2" d="m117.795 83.62-14.13 2.49"/><path stroke="#000" stroke-linecap="round" stroke-linejoin="round" stroke-width="2" d="m86.365 150.61-4.46-1.11M86.225 158.68l-4.18 1.28"/></svg>