<svg xmlns="http://www.w3.org/2000/svg" width="510" height="400" fill="none" viewBox="0 0 510 400"><path fill="#070E15" stroke="#070E15" stroke-linecap="round" stroke-linejoin="round" stroke-width="1.295" d="M94.066 398.409c-30.013 0-54.344-.635-54.344-1.418 0-.783 24.33-1.418 54.344-1.418 30.014 0 54.344.635 54.344 1.418 0 .783-24.33 1.418-54.344 1.418Z"/><path stroke="#070E15" stroke-linecap="round" stroke-linejoin="round" stroke-width="1.295" d="M47.746 187.354c-.467-.589-.66-1.69-.447-2.894.298-1.678 1.276-2.908 2.188-2.746.907.162 1.406 1.651 1.108 3.329-.214 1.204-.784 2.169-1.418 2.557l-1.295 7.286-.803-.143-.486-.868.77-.738-.485-.868.764-.693-.415-1.269.525-2.966-.006.013ZM1.225 390.515h188.267l-2.486-166.554H1.225m-.001-8.199h185.781"/><path fill="#fff" stroke="#070E15" stroke-linecap="round" stroke-linejoin="round" stroke-width="1.295" d="M76.023 215.762c-5.433 11.857-42 82.448-42 82.448a8.992 8.992 0 0 0 .355 9.021l37.009 58.423 9.24-7.66-9.907-30.021a49.85 49.85 0 0 0-5.537-11.546l-7.913-12.214a2.492 2.492 0 0 1 .414-3.199l11.987-10.944a79.557 79.557 0 0 0 11.378-12.905l6.404-11.197.855 41.587.583 18.151a106.641 106.641 0 0 1-.913 17.718l-4.799 34.988 12.168 1.78 7.926-19.252 2.37-5.757a59.975 59.975 0 0 0 4.41-26.485l-1.133-18.689a15.1 15.1 0 0 1 .732-5.66l15.787-47.971c.117-.357 1.062-3.322 2.273-7.117 3.685-11.553 2.571-23.164-4.941-33.492H76.023v-.007Z"/><path fill="#fff" d="M87.447 265.955s.64-12.032 1.385-19.906l-4.06-9.131"/><path stroke="#070E15" stroke-linecap="round" stroke-linejoin="round" stroke-width="1.295" d="M87.447 265.955s.64-12.032 1.385-19.906l-4.06-9.131"/><path fill="#070E15" stroke="#070E15" stroke-linecap="round" stroke-linejoin="round" stroke-width="1.295" d="m66.648 358.162 6.262 10.154a9.217 9.217 0 0 1 1.373 4.85v14.097l7.084 2.04 4.028-27.055-6.087-12-12.66 7.914Z"/><path stroke="#070E15" stroke-linecap="round" stroke-linejoin="round" stroke-width="1.295" d="M78.11 219.04h21.116"/><path fill="#574CFA" stroke="#574CFA" stroke-linecap="round" stroke-linejoin="round" stroke-width="1.295" d="m76.024 215.764 11.138-21.862a16.834 16.834 0 0 1-6.197-9.979l-.097-.473 4.52-7.071-2.098-8.373c-1.457-5.952 3.05-11.689 9.176-11.689h4.183a4.047 4.047 0 0 1 3.931 3.057l2.817 11.099 13.968-11.825a9.845 9.845 0 0 1 6.359-2.331h4.76c6.054 0 11.403 3.95 13.178 9.739l5.646 18.391h-16.972l2.318 5.382-11.896 23.118 2.014 2.817H76.024Z"/><path fill="#fff" d="m147.309 184.44 6.773 22.062c1.412 4.598-2.027 9.254-6.838 9.254h-24.472l-5.983 8.198h-14.066v-3.011a6.42 6.42 0 0 1 1.969-4.624l4.805-4.623a9.108 9.108 0 0 1 5.161-2.467l22.905-2.882a28.872 28.872 0 0 1 4.163-.304h-2.091l-9.293-21.61"/><path stroke="#070E15" stroke-linecap="round" stroke-linejoin="round" stroke-width="1.295" d="m147.309 184.44 6.773 22.062c1.412 4.598-2.027 9.254-6.838 9.254h-24.472l-5.983 8.198h-14.066v-3.011a6.42 6.42 0 0 1 1.969-4.624l4.805-4.623a9.108 9.108 0 0 1 5.161-2.467l22.905-2.882a28.872 28.872 0 0 1 4.163-.304h-2.091l-9.293-21.61m-44.954-8.054 3.09-4.831"/><path fill="#070E15" stroke="#070E15" stroke-linecap="round" stroke-linejoin="round" stroke-width="1.295" d="m107.625 166.891 7.965-4.533 5.537 2.869-13.502 1.664Zm-13.559-1.663 3.18-2.163 5.245 3.827-8.425-1.664Z"/><path stroke="#070E15" stroke-linecap="round" stroke-linejoin="round" stroke-width="1.295" d="m121.128 165.227 3.315-7.006m-21.045 12.245-14.564 45.297"/><path stroke="#fff" stroke-linecap="round" stroke-linejoin="round" stroke-width="1.295" d="M135.167 165.842c-.958-.208-1.91-.408-2.869-.615m-5.944 6.451v1.334m10.252 1.749-1.127.718m-15.789 4.525c-.719-.032-1.437-.058-2.15-.09m-5.465-7.499c.136.44.279.887.415 1.327m5.769 16.902-1.742.408m8.684 2.162.311 1.846m-18.43-8.003-2.053-.408m4.825 10.97c-.168.647-.343 1.301-.511 1.949m10.152 3.762-1.845-.913m-18.785-1.1.726 1.23m4.486 8.197c-.576.188-1.153.369-1.729.557m-18.022-.357c-.544-.304-1.094-.615-1.638-.919m6.288-30.533c.447.544.893 1.088 1.34 1.639m-.66-16.933c-.887.032-1.774.071-2.668.104m10.283 8.042c-.686.505-1.373 1.017-2.06 1.522m-6.681 15.495c.751-.233 1.509-.466 2.26-.693m-2.96 10.602.252 2.454"/><path stroke="#070E15" stroke-linecap="round" stroke-linejoin="round" stroke-width="1.295" d="M122.405 223.961h-19.68"/><path fill="#070E15" stroke="#070E15" stroke-linecap="round" stroke-linejoin="round" stroke-width="1.295" d="m103.145 367.217-18.378-.388-3.393 14.576a6.27 6.27 0 0 1-3.594 4.326l-16.099 7.052a4.207 4.207 0 0 0 4.203 4.203h11.909c3.283 0 6.462-1.192 8.936-3.355l1.639-1.431 1.489 4.786h6.968l2.5-6.528a10.55 10.55 0 0 0 .064-7.375l-1.314-3.62 5.07-12.252v.006Z"/><path fill="#fff" stroke="#070E15" stroke-linecap="round" stroke-linejoin="round" stroke-width="1.295" d="M88.083 223.599c-3.705 0-6.709-2.041-6.709-4.559 0-2.518 3.004-4.559 6.709-4.559 3.705 0 6.709 2.041 6.709 4.559 0 2.518-3.004 4.559-6.709 4.559Z"/><path stroke="#070E15" stroke-linecap="round" stroke-linejoin="round" stroke-width="1.295" d="M88.835 246.051H78.111m34.941-100.55 8.178 5.614a4.041 4.041 0 0 0 5.913-1.619l4.002-8.444a4.379 4.379 0 0 0 .077-3.574l-1.742-4.125c1.716-4.43.881-8.6-1.606-11.54-2.519-2.972-6.825-2.04-9.609-2.823-6.431-1.807-7.583-4.624-14.817-4.618"/><path stroke="#070E15" stroke-linecap="round" stroke-linejoin="round" stroke-width="1.295" d="M139.869 162.157a17.273 17.273 0 0 0 1.696-16.947l-2.169-4.915 1.612-1.651a17.98 17.98 0 0 0-7.557-29.743l-10.6-3.276a15.628 15.628 0 0 0-14.752 3.037l-3.503 2.985h-1.982a6.013 6.013 0 0 0-5.737 4.216l-1.969 6.301a17.725 17.725 0 0 0 5.971 19.226c-.952 1.923-3.025 3.056-5.123 2.597"/><path stroke="#070E15" stroke-linecap="round" stroke-linejoin="round" stroke-width="1.295" d="m127.326 135.083 2.545 3.419-2.202 1.386m.518 3.056c-2.746-.958-5.667-.311-8.458.35 1.807 2.039 4.1 3.166 6.502 2.655m-9.901-20.762c1.742-1.541 4.416-1.93 6.521-.939m-12.265.202s-2.578 3.167-.978 7.823h18.261"/><path fill="#070E15" stroke="#070E15" stroke-linecap="round" stroke-linejoin="round" stroke-width="1.295" d="M120.752 137.134c-2.16 0-3.911-2.18-3.911-4.87 0-2.689 1.751-4.869 3.911-4.869s3.912 2.18 3.912 4.869c0 2.69-1.752 4.87-3.912 4.87Z"/><path fill="#070E15" d="M118.266 132.267c0 1.871 1.14 3.451 2.487 3.451l-2.487-3.451Z"/><path stroke="#fff" stroke-linecap="round" stroke-linejoin="round" stroke-width="1.295" d="M118.266 132.267c0 1.871 1.14 3.451 2.487 3.451"/><path fill="#070E15" stroke="#070E15" stroke-linecap="round" stroke-linejoin="round" stroke-width="1.295" d="M131.781 137.134c-2.16 0-3.911-2.18-3.911-4.87 0-2.689 1.751-4.869 3.911-4.869s3.912 2.18 3.912 4.869c0 2.69-1.752 4.87-3.912 4.87Z"/><path fill="#070E15" d="M129.293 132.267c0 1.871 1.14 3.451 2.487 3.451l-2.487-3.451Z"/><path stroke="#fff" stroke-linecap="round" stroke-linejoin="round" stroke-width="1.295" d="M129.293 132.267c0 1.871 1.14 3.451 2.487 3.451"/><path stroke="#070E15" stroke-linecap="round" stroke-linejoin="round" stroke-width="1.295" d="M108.223 134.305a6.513 6.513 0 0 0-4.125-2.817c-1.341 1.23-1.723 3.341-1.134 5.064 1.101 3.212 3.387 4.559 5.751 6.527l-2.299 9.215a5.63 5.63 0 0 1-5.388 4.009l-4.384.013-2.584 8.91"/><path fill="#fff" d="m78.11 205.928-11.663-11.411a9.264 9.264 0 0 0-3.665-2.208l-5.964-1.91a8.01 8.01 0 0 1-3.853-2.675l-5.33-6.754a2.553 2.553 0 0 1-.227-2.823l3.154-5.653c1.405 1.042 2.014 2.836 1.146 5.025"/><path stroke="#070E15" stroke-linecap="round" stroke-linejoin="round" stroke-width="1.295" d="m78.11 205.928-11.663-11.411a9.264 9.264 0 0 0-3.665-2.208l-5.964-1.91a8.01 8.01 0 0 1-3.853-2.675l-5.33-6.754a2.553 2.553 0 0 1-.227-2.823l3.154-5.653c1.405 1.042 2.014 2.836 1.146 5.025"/><path stroke="#070E15" stroke-linecap="round" stroke-linejoin="round" stroke-width="1.295" d="m72.483 187.193-9.655-10.258a2.25 2.25 0 0 0-2.092-.66l-4.98 1.016h-3.548c0 1.418.997 2.636 2.39 2.914l5.471 1.108a7.278 7.278 0 0 0 4.87 5.232l.324.104"/><path fill="#fff" d="m52.719 187.426-2.765-3.549a2.553 2.553 0 0 1-.227-2.823l3.154-5.653a3.836 3.836 0 0 1 1.275 4.52l-1.036 2.072 2.558 2.856"/><path stroke="#070E15" stroke-linecap="round" stroke-linejoin="round" stroke-width="1.295" d="m52.719 187.426-2.765-3.549a2.553 2.553 0 0 1-.227-2.823l3.154-5.653a3.836 3.836 0 0 1 1.275 4.52l-1.036 2.072 2.558 2.856"/><path fill="#574CFA" stroke="#574CFA" stroke-linecap="round" stroke-linejoin="round" stroke-width="1.295" d="M59.72 186.116c-2.593-1.496-4.086-3.764-3.335-5.065.752-1.301 3.462-1.142 6.054.355 2.593 1.496 4.085 3.764 3.334 5.065-.75 1.301-3.461 1.142-6.053-.355Z"/><path stroke="#070E15" stroke-linecap="round" stroke-linejoin="round" stroke-width="1.295" d="M56.384 181.047c-.752 1.302.744 3.568 3.335 5.064 2.59 1.496 5.303 1.658 6.054.356m-10.82-18.189.725-3.976m-10.148 7.342-3.122-2.577m.59 12.344-5.064-.331m68.539-78.278a576.462 576.462 0 0 0-.725-3.374m-2.156 5.544c-.479-.402-.964-.803-1.444-1.205"/><path stroke="#fff" stroke-linecap="round" stroke-linejoin="round" stroke-width="1.295" d="m84.766 366.834-3.393 14.577a6.271 6.271 0 0 1-3.594 4.325l-3.49 1.529"/><path fill="#574CFA" stroke="#574CFA" stroke-linecap="round" stroke-linejoin="round" stroke-width="1.295" d="m450.766 184.136-2.831-3.159-9.272-23.982a19.921 19.921 0 0 0-10.374-10.975l-6.845-3.093-3.702-1.671 1.069-5.808-15.5-6.936-3.184 4.772-5.265-2.386-17.071-7.725-8.902-9.593a38.136 38.136 0 0 0-5.809-5.109l-.864-1.333a1.67 1.67 0 0 0-1.085-.732l-1.284-.247-9.223 7.24.543 2.164a5.15 5.15 0 0 0 2.131 3.019l3.085 2.049 23.037 28.614v45.587h33.048l11.395-24.665 7.643 13.393-.14 1.498a2.326 2.326 0 0 0 1.037 2.156l1.908 1.266 16.553.091.453-2.452a2.334 2.334 0 0 0-.551-1.974v-.009Z"/><path fill="#000" stroke="#000" stroke-linecap="round" stroke-linejoin="round" stroke-width="1.295" d="m502.622 342.947-15.903-7.602-14.225-15.203-.955 1.118-20.403-22.164a34.955 34.955 0 0 0-8.721-6.869l-4.303-2.394-3.48-54.11a54.965 54.965 0 0 0-18.856-38.018l-3.308-2.863H379.42l.362 104.156 6.622 8.935 9.305 33.649h-1.645l7.339 20.576-5.381 23.744a6.677 6.677 0 0 1-2.172 3.595 6.868 6.868 0 0 0-2.394 5.347c.033 1.333.066 2.567.066 2.567h7.7a8.433 8.433 0 0 0 6.278-2.813l13.122-14.743-7.009-16.331.51-21.951h-1.646l-1.16-22.517a45.625 45.625 0 0 0-2.419-12.456l-3.694-10.688 2.938-26.507 9.864 29.593 46.936 33.723-1.02 1.514 17.08 10.021 10.563 19.712c.403.749.601 1.579.584 2.427l-.074 4.805a4.98 4.98 0 0 0 2.287 4.261 4.965 4.965 0 0 0 5.702-.247l3.809-2.929.74-29.329.009-.009Z"/><path stroke="#fff" stroke-linecap="round" stroke-linejoin="round" stroke-width="1.295" d="m395.372 247.685 1.695 1.053a9.075 9.075 0 0 1 3.817 4.829l5.282 15.829m96.257 80.743-6.45-2.904m-24.434-25.974-8.581 11.444m-51.222 44.378 3.02 7.125m-19.038-42.635h14.776"/><path stroke="#000" stroke-linecap="round" stroke-linejoin="round" stroke-width="1.295" d="m456.551 187.238 3.915-2.509m-2.28 7.141 5.051.23"/><path fill="#574CFA" d="m382.652 172.356 25.356 3.949-28.573-9.379c-5.339-5.751-5.249-11.345-5.249-11.345l10.153-12.226"/><path stroke="#000" stroke-linecap="round" stroke-linejoin="round" stroke-width="1.295" d="m382.652 172.356 25.356 3.949-28.573-9.379c-5.339-5.751-5.249-11.345-5.249-11.345l10.153-12.226"/><path fill="#574CFA" stroke="#574CFA" stroke-linecap="round" stroke-linejoin="round" stroke-width="1.295" d="M437.406 117.227a20.706 20.706 0 0 0 4.204-8.844c1.349-6.524-.494-13.797-7.256-18.923-9.453-7.15-19.334-4.607-24.797.222-3.036 2.682-5.192 6.08-6.599 9.799l.486.19c.263-.667.6-1.3.979-1.893a12.299 12.299 0 0 1 4.821-4.673l.946-.51s1.292 10.119 13.139 15.179l4.278 1.464-2.394 5.118c.814-.362 1.695-.626 2.583-.576.889.049 1.794.452 2.288 1.193.732 1.111.378 2.633-.354 3.752-.05.082-.091.164-.14.246-1.464 2.23-4.459 3.332-7.125 2.633l-.057.206-.297 1.662s8.976 1.497 15.295-6.237v-.008Z"/><path fill="#fff" d="M399.205 110.621c-1.464 3.62-1.02 6.162-.773 7.816l.65 4.755a5.817 5.817 0 0 0 3.331 4.484l.552.255c.806.37 1.695.551 2.583.535l6.401-.165h.164a7.307 7.307 0 0 0 5.488-2.493l.831-.946"/><path stroke="#070E15" stroke-linecap="round" stroke-linejoin="round" stroke-width="1.295" d="M399.205 110.621c-1.464 3.62-1.02 6.162-.773 7.816l.65 4.755a5.817 5.817 0 0 0 3.331 4.484l.552.255c.806.37 1.695.551 2.583.535l6.401-.165h.164a7.307 7.307 0 0 0 5.488-2.493l.831-.946m-.804-15.944c-.165-1.646-1.144-3.192-2.567-4.031-1.424-.848-3.25-.963-4.772-.313"/><path stroke="#070E15" stroke-linecap="round" stroke-linejoin="round" stroke-width="1.295" d="M406.149 102.731v-.017c-.099-1.571-1.761-2.533-3.168-1.842l.683-1.555a12.357 12.357 0 0 1 5.587-6.212l.946-.51s1.291 10.12 13.139 15.179"/><path fill="#fff" d="m427.614 109.237-2.394 5.117c.814-.362 1.695-.625 2.583-.576.889.05 1.794.453 2.287 1.193.732 1.111.378 2.633-.354 3.752-1.514 2.32-4.574 3.505-7.256 2.814l-.971 3.627 1.185 7.331 5.216-3.858-6.401-3.473"/><path stroke="#070E15" stroke-linecap="round" stroke-linejoin="round" stroke-width="1.295" d="m427.614 109.237-2.394 5.117c.814-.362 1.695-.625 2.583-.576.889.05 1.794.453 2.287 1.193.732 1.111.378 2.633-.354 3.752-1.514 2.32-4.574 3.505-7.256 2.814l-.971 3.627m0 0 1.185 7.331 5.216-3.858-6.401-3.473Zm-10.002-36.132c.477-3.488 2.994-6.623 6.293-7.848"/><path fill="#574CFA" d="M432.576 88.202c3.513 2.312 5.068 4.138 7.272 7.454 2.197 3.315 4.468 6.836 8.162 8.071-3.661 6.343-9.544 11.213-16.24 9.888"/><path stroke="#574CFA" stroke-linecap="round" stroke-linejoin="round" stroke-width="1.295" d="M432.576 88.202c3.513 2.312 5.068 4.138 7.272 7.454 2.197 3.315 4.468 6.836 8.162 8.071-3.661 6.343-9.544 11.213-16.24 9.888"/><path stroke="#070E15" stroke-linecap="round" stroke-linejoin="round" stroke-width="1.295" d="M439.165 99.53a15.87 15.87 0 0 1-11.329-5.316c-3.521-3.957-9.255-5.134-13.862-2.558l-.395.222 2.418.724a14.833 14.833 0 0 1 8.746 7.034c1.859 3.39 5.01 5.915 8.745 7.034l-.057-.016m-31.001 8.098-1.103-1.596a2.05 2.05 0 0 1 1.654-3.226 2.054 2.054 0 0 0 1.76-1.044l.256-.453m-.41-1.729c.173-2.033-1.801-3.061-3.348-1.744l-.56-.288m9.856 4.202c.847-.584 2.048-.625 2.937-.098.888.526 1.431 1.596 1.324 2.624l1.095.568m-17.007 5.407a6.858 6.858 0 0 1 4.098.707c.789.411 1.489.979 2.27 1.399.782.428 1.695.707 2.559.493-.535 1.235-1.316 2.411-2.591 2.831a4.856 4.856 0 0 1-3.908-.412m44.246-32.005c.609-.46 1.227-.922 1.836-1.374m-2.058 30.294c1.226.156 2.451.304 3.669.461m-46.878-33.947c-.839-1.382-1.679-2.756-2.518-4.138m101.203 250.855c3.258.411 6.278 2.386 7.964 5.2m-93.066 54.185c1.226-.411 2.452-.815 3.678-1.226m58.856-144.856-3.291-3.456-1.991-7.568a6.929 6.929 0 0 0-3.422-4.344l-3.933-2.115-11.847-31.995-2.888-7.808-16.553-.09 23.974 42.008v10.843c0 .922.263 1.818.748 2.6l.626.995a4.887 4.887 0 0 0 1.382 1.432l13.238 9.042 4.228-6.442a2.508 2.508 0 0 0-.279-3.11l.008.008Z"/><path stroke="#070E15" stroke-linecap="round" stroke-linejoin="round" stroke-width="1.295" d="m477.989 249.766-6.409-5.084-1.744-4.591m6.394 12.358-7.866-5.718-2.369-5.092m-3.761 1.677 2.838 5.783"/><path stroke="#000" stroke-linecap="round" stroke-linejoin="round" stroke-width="1.295" d="m350.625 113.401 9.223-7.24-.626-2.073a72.847 72.847 0 0 0-6.598-15.336l-15.129-26.319 1.851-5.808a6.63 6.63 0 0 0 .147-3.496l-1.48-6.467.099-4.764a3.343 3.343 0 0 0-3.341 3.291l-.025 1.687-3.883-12.168-5.907 4.714a3.366 3.366 0 0 0-1.242 3.06l1.275 9.955c.28 2.172.938 4.287 1.958 6.229l3.916 7.502 15.986 38.306m-18.432-67.817 4.023 13.476m-6.751-11.295 3.62 13.443"/><path stroke="#000" stroke-linecap="round" stroke-linejoin="round" stroke-width="1.295" d="m334.771 45.197-.107 6.697-1.72 1.703m11.444 55.927h-1.991m3.669 3.983-1.226 1.835"/><path fill="#000" stroke="#000" stroke-linecap="round" stroke-linejoin="round" stroke-width="1.295" d="M436.664 398.975c36.428 0 65.958-.747 65.958-1.67 0-.922-29.53-1.67-65.958-1.67-36.427 0-65.957.748-65.957 1.67 0 .923 29.53 1.67 65.957 1.67Z"/><path stroke="#070E15" stroke-linecap="round" stroke-linejoin="round" stroke-width="1.295" d="M330.912 21.51V1m10.161 26.37c2.451-3.366 4.895-6.739 7.347-10.104m-.668 21.694h24.114m-55.474-8.778c-2.222-3.077-4.451-6.154-6.673-9.231m.074 20.769h-16.537"/><path fill="#000" stroke="#000" stroke-linecap="round" stroke-linejoin="round" stroke-width="1.295" d="M242.98 399c43.034 0 77.92-.748 77.92-1.67 0-.923-34.886-1.67-77.92-1.67s-77.92.747-77.92 1.67c0 .922 34.886 1.67 77.92 1.67Z"/><path fill="#070E15" stroke="#070E15" stroke-linecap="round" stroke-linejoin="round" stroke-width="1.295" d="M206.137 375.098h4.994l-2.772 3.785-2.222-3.785Zm65.242-19.892h5.743l-4.533 7.215-1.21-7.215Z"/><path fill="#fff" d="m286.131 224.748-.091-.23a8.436 8.436 0 0 0-7.906-5.479h-40.058a8.448 8.448 0 0 0-7.94 5.569l-5.586 15.435a63.651 63.651 0 0 0-3.48 15.277l-4.681 46.015-8.474 14.891-16.849 58.874h15.072l27.956-55.747 8.433-10.194 2.073-15.533 12.867-30.621 23.127 27.775-10.473 14.381-13.09 50.046h14.348l29.816-57.895 7.988-11.074-18.865-50.317"/><path stroke="#070E15" stroke-linecap="round" stroke-linejoin="round" stroke-width="1.295" d="m286.131 224.748-.091-.23a8.436 8.436 0 0 0-7.906-5.479h-40.058a8.448 8.448 0 0 0-7.94 5.569l-5.586 15.435a63.651 63.651 0 0 0-3.48 15.277l-4.681 46.015-8.474 14.891-16.849 58.874h15.072l27.956-55.747 8.433-10.194 2.073-15.533 12.867-30.621 23.127 27.775-10.473 14.381-13.09 50.046h14.348l29.816-57.895 7.988-11.074-18.865-50.317"/><path fill="#574CFA" stroke="#574CFA" stroke-linecap="round" stroke-linejoin="round" stroke-width="1.295" d="m249.06 369.825 15.138 19.86a7.115 7.115 0 0 0 5.661 2.806h5.586a4.086 4.086 0 0 0 3.628-5.965l-3.612-6.976-4.089-24.344h-14.348l-7.964 14.619Zm-64.518 27.586h40.083v-7.339l-11.789-3.554-6.697-11.42h-15.072l-6.525 22.313Z"/><path fill="#000" stroke="#000" stroke-linecap="round" stroke-linejoin="round" stroke-width="1.295" d="m275.098 129.954-38.725 14.694a30.106 30.106 0 0 0-14.324 11.378l-12.464 18.561 12.596 16.018 8.827-8.992-1.382 28.573-2.443 6.187a3.627 3.627 0 0 0 .173 3.035l2.772 5.2a8.448 8.448 0 0 1 7.939-5.57h40.059a8.436 8.436 0 0 1 7.906 5.479l.091.231 2.492-3.76a4.426 4.426 0 0 0 .412-4.122l-3.39-8.285-1.654-23.85 2.131-6.565c.156-.486.247-.996.255-1.506l.527-23.028 16.084-22.436-11.905-15.138-7.758 8.359a21.733 21.733 0 0 1-8.227 5.537h.008Z"/><path fill="#fff" stroke="#070E15" stroke-linecap="round" stroke-linejoin="round" stroke-width="1.295" d="m209.595 174.586-14.135 23.241-11.51 33.501-1.563 2.789a11.156 11.156 0 0 0-1.102 8.112 13.667 13.667 0 0 0 3.34 6.138l2.97 3.151-.683 2.879a2.252 2.252 0 0 0 1.687 2.715l8.161 1.893 2.296-6.994a4.8 4.8 0 0 0 0-2.961l-4.945-15.105 16.389-31.198 11.69-12.151-12.595-16.019v.009Zm22.558 44.453-2.016 5.569 2.016-5.569Zm53.98 5.709-2.147-5.709 2.147 5.709Z"/><path fill="#fff" d="m331.752 45.32-1.087-.65-6.746-4.007-4.903 17.417-2.435-5.043a3.369 3.369 0 0 0-4.418-1.613l1.596 4.854c.148.436.222.897.23 1.358l.099 3.99a8.584 8.584 0 0 0 .913 3.66l1.975 3.942-20.034 40.527-5.858 6.31 11.905 15.138 6.335-8.836a24.174 24.174 0 0 0 3.875-7.651l12.752-42.535 4.319-5.858a10.001 10.001 0 0 0 1.778-4.722l1.373-12.941a3.438 3.438 0 0 0-1.669-3.324v-.016Z"/><path stroke="#070E15" stroke-linecap="round" stroke-linejoin="round" stroke-width="1.295" d="m330.665 44.67 1.087.65v.016a3.438 3.438 0 0 1 1.669 3.324l-1.373 12.94a10.001 10.001 0 0 1-1.778 4.722l-4.319 5.858-12.752 42.535a24.174 24.174 0 0 1-3.875 7.651l-6.335 8.836-11.905-15.138 5.858-6.31 20.034-40.527-1.975-3.941a8.584 8.584 0 0 1-.913-3.661l-.099-3.99a4.474 4.474 0 0 0-.23-1.358l-1.596-4.854a3.369 3.369 0 0 1 4.418 1.613l2.435 5.043 4.903-17.417 6.746 4.007Zm0 0-2.394 13.311m-4.048-2.443 3.086-12.86"/><path fill="#fff" d="m189.717 257.391 2.131-7.298-5.191-4.821"/><path stroke="#070E15" stroke-linecap="round" stroke-linejoin="round" stroke-width="1.295" d="m189.717 257.391 2.131-7.298-5.191-4.821"/><path fill="#fff" d="M185.406 236.184a6.211 6.211 0 0 0 4.616 6.268l.444.116.666 3.587a4.24 4.24 0 0 0 4.698 3.439l-1.711-15.64"/><path stroke="#070E15" stroke-linecap="round" stroke-linejoin="round" stroke-width="1.295" d="M185.406 236.184a6.211 6.211 0 0 0 4.616 6.268l.444.116.666 3.587a4.24 4.24 0 0 0 4.698 3.439l-1.711-15.64m1.702 15.648-2.271 8.68"/><path stroke="#fff" stroke-linecap="round" stroke-linejoin="round" stroke-width="1.295" d="m231.016 181.619.543-11.304"/><path stroke="#070E15" stroke-linecap="round" stroke-linejoin="round" stroke-width="1.295" d="m257.459 263.002-8.894-10.678"/><path fill="#fff" stroke="#070E15" stroke-linecap="round" stroke-linejoin="round" stroke-width="1.295" d="M271.684 224.748h-23.119v14.702a4.664 4.664 0 0 0 2.682 4.22l6.352 2.979a4.648 4.648 0 0 0 3.776.082l7.454-3.118a4.658 4.658 0 0 0 2.855-4.295v-14.57Z"/><path stroke="#070E15" stroke-linecap="round" stroke-linejoin="round" stroke-width="1.295" d="M230.137 224.607h5.866v13.296a5.706 5.706 0 0 1-3.735 5.355l-9.758 3.596"/><path fill="#fff" stroke="#070E15" stroke-linecap="round" stroke-linejoin="round" stroke-width="1.295" d="M264.297 365.968h-13.131l-2.106 3.866 15.138 19.861a7.115 7.115 0 0 0 5.661 2.806h5.586a4.087 4.087 0 0 0 3.15-1.482 4.08 4.08 0 0 0 .914-2.27l-15.22-22.773.008-.008Z"/><path fill="#070E15" stroke="#070E15" stroke-linecap="round" stroke-linejoin="round" stroke-width="1.295" d="M249.06 369.824h13.369l13.616 20.65c.568.864-.049 2.016-1.086 2.016h-5.1a7.104 7.104 0 0 1-5.661-2.806l-15.138-19.86Z"/><path fill="#fff" stroke="#070E15" stroke-linecap="round" stroke-linejoin="round" stroke-width="1.295" d="M185.587 393.784h39.038v3.628h-40.083l1.045-3.628Z"/><path stroke="#000" stroke-linecap="round" stroke-linejoin="round" stroke-width="1.295" d="M243.917 368.994c-1.012 2.51-.461 5.57 1.366 7.57m37.887-28.237c1.374-.766 2.756-1.531 4.13-2.296m-5.966 15.838h3.217"/><path stroke="#070E15" stroke-linecap="round" stroke-linejoin="round" stroke-width="1.295" d="M289.981 228.327c1.53-.304 3.06-.608 4.591-.921"/><path stroke="#000" stroke-linecap="round" stroke-linejoin="round" stroke-width="1.295" d="m274.671 99.653 1.892 3.563c.461.872.667 1.859.584 2.838l-.197 2.353 4.607 5.34-1.991 2.534 1.193 2.139a4.12 4.12 0 0 1-2.435 2.476l-.337.132 2.492 1.563-.888 1.793 1.316 2.518m-26.763 6.483c.238-3.76-1.605-7.339-3.768-10.408-2.164-3.068-4.731-5.907-6.303-9.329"/><path fill="#000" stroke="#000" stroke-linecap="round" stroke-linejoin="round" stroke-width="1.295" d="M274.127 93.269c-1.431-.75-3.447-.659-4.829.164-.37-1.785-1.794-3.307-3.546-3.809-1.752-.502-4.574.239-5.825 1.555.346-2.007-1.308-4.114-3.307-4.5-.535 1.34-1.769 2.295-3.077 2.92-.724.346-1.473.61-2.23.872-1.48.51-3.636 1.802-4.755 2.888-1.818-.246-4.072 1.053-4.871 2.707-.789 1.654-.394 3.801.938 5.06-1.308.584-2.813 2.402-3.027 3.817-.222 1.415.321 2.921 1.382 3.875.362 3.546 1.892 6.722 4.294 9.354 2.896 3.176 7.142 5.463 8.4 9.569 3.069-.889 6.401-1.802 8.812-3.892 1.3-1.127 2.369-2.6 2.986-4.204-1.02-.987-1.867-2.156-2.402-3.464-.979-2.377-1.242-6.894 1.859-7.873a2.336 2.336 0 0 1 1.317-.049c1.53.107 2.731 1.349 3.669 2.575.617-1.037.724-2.444.255-3.563-.461-1.11-1.127-2.163-1.333-3.348-.271-1.604.403-3.332 1.695-4.327 1.275.715 2.921.855 4.13.04.42-.863 1.209-1.957 1.991-2.508-.115-1.605-1.11-3.119-2.542-3.868l.016.009Z"/><path stroke="#000" stroke-linecap="round" stroke-linejoin="round" stroke-width="1.295" d="m261.228 81.841-.099-4.237m4.724 5.833 3.34-2.846m5.255 29.297c.321-1.086 1.539-1.818 2.641-1.588"/></svg>