<svg xmlns="http://www.w3.org/2000/svg" width="264" height="264" fill="none" viewBox="0 0 264 264"><path fill="#fff" d="m82.31 106.36 3.47 39.85 13.36-1.16c1.18-.1 1.85-1.42 1.23-2.43l-1.68-2.28c-1.48-2.01-.19-4.87 2.3-5.08l7.77-.68c2.49-.22 4.25 2.37 3.14 4.61l-1.26 2.54c-.44 1.11.44 2.29 1.63 2.18l13.36-1.16-1.16-13.36c-.1-1.18 1.08-2.06 2.18-1.63l2.54 1.26c2.24 1.11 4.83-.66 4.61-3.14l-.68-7.77c-.22-2.49-3.07-3.78-5.08-2.3l-2.28 1.68a1.6 1.6 0 0 1-2.43-1.23l-1.16-13.36"/><path stroke="#000" stroke-linecap="round" stroke-linejoin="round" stroke-width="2" d="m82.31 106.36 3.47 39.85 13.36-1.16c1.18-.1 1.85-1.42 1.23-2.43l-1.68-2.28c-1.48-2.01-.19-4.87 2.3-5.08l7.77-.68c2.49-.22 4.25 2.37 3.14 4.61l-1.26 2.54c-.44 1.11.44 2.29 1.63 2.18l13.36-1.16-1.16-13.36c-.1-1.18 1.08-2.06 2.18-1.63l2.54 1.26c2.24 1.11 4.83-.66 4.61-3.14l-.68-7.77c-.22-2.49-3.07-3.78-5.08-2.3l-2.28 1.68a1.6 1.6 0 0 1-2.43-1.23l-1.16-13.36"/><path fill="#fff" d="M163.79 119.96 162 99.43l-39.85 3.47 1.16 13.36c.1 1.18 1.42 1.85 2.43 1.23l2.28-1.68c2.01-1.48 4.87-.19 5.08 2.3l.68 7.77c.22 2.49-2.37 4.25-4.61 3.14l-2.54-1.26c-1.11-.44-2.29.44-2.18 1.63l1.16 13.36 13.36-1.16c1.18-.1 2.06 1.08 1.63 2.18l-1.26 2.54c-1.11 2.24.66 4.83 3.14 4.61l7.77-.68c2.49-.22 3.78-3.07 2.3-5.08l-1.68-2.28a1.6 1.6 0 0 1 1.23-2.43l13.36-1.16-.62-7.08"/><path stroke="#000" stroke-linecap="round" stroke-linejoin="round" stroke-width="2" d="M163.79 119.96 162 99.43l-39.85 3.47 1.16 13.36c.1 1.18 1.42 1.85 2.43 1.23l2.28-1.68c2.01-1.48 4.87-.19 5.08 2.3l.68 7.77c.22 2.49-2.37 4.25-4.61 3.14l-2.54-1.26c-1.11-.44-2.29.44-2.18 1.63l1.16 13.36 13.36-1.16c1.18-.1 2.06 1.08 1.63 2.18l-1.26 2.54c-1.11 2.24.66 4.83 3.14 4.61l7.77-.68c2.49-.22 3.78-3.07 2.3-5.08l-1.68-2.28a1.6 1.6 0 0 1 1.23-2.43l13.36-1.16-.62-7.08"/><path fill="#fff" stroke="#000" stroke-linecap="round" stroke-linejoin="round" stroke-width="2" d="m98.68 140.34 1.68 2.28a1.6 1.6 0 0 1-1.23 2.43l-13.36 1.16 3.47 39.85 39.85-3.47-1.16-13.36c-.1-1.18-1.42-1.85-2.43-1.23l-2.28 1.68c-2.01 1.48-4.87.19-5.08-2.3l-.68-7.77c-.22-2.49 2.37-4.25 4.61-3.14l2.54 1.26c1.11.44 2.29-.44 2.18-1.63l-1.16-13.36-13.36 1.16c-1.18.1-2.06-1.08-1.63-2.18l1.26-2.54c1.11-2.24-.66-4.83-3.14-4.61l-7.77.68c-2.49.22-3.78 3.07-2.3 5.08l-.01.01Z"/><path fill="#fff" d="m160.96 170.84 4.71 6.14 1.73-1.45a4.334 4.334 0 0 0 .66-5.95l-3.63-4.76"/><path stroke="#000" stroke-linecap="round" stroke-linejoin="round" stroke-width="2" d="m160.96 170.84 4.71 6.14 1.73-1.45a4.334 4.334 0 0 0 .66-5.95l-3.63-4.76"/><path fill="#fff" d="M163.23 152.46c-.02.31-6.55 8.72-6.55 8.72l.94 10.79 2.59-.23c2.26-.2 4.03-2.04 4.12-4.31l.12-2.81"/><path stroke="#000" stroke-linecap="round" stroke-linejoin="round" stroke-width="2" d="M163.23 152.46c-.02.31-6.55 8.72-6.55 8.72l.94 10.79 2.59-.23c2.26-.2 4.03-2.04 4.12-4.31l.12-2.81"/><path fill="#574CFA" stroke="#574CFA" stroke-linecap="round" stroke-linejoin="round" stroke-width="2" d="m116.75 163.19 2.05-1.96a1.6 1.6 0 0 1 2.57.9l2.86 13.1 39.08-8.54-8.54-39.08-13.1 2.86c-1.16.25-1.65 1.64-.9 2.57l1.96 2.05c1.73 1.81.81 4.8-1.63 5.34l-7.62 1.67c-2.44.53-4.52-1.81-3.71-4.17l.92-2.68c.29-1.15-.73-2.21-1.89-1.96l-13.1 2.86 2.86 13.1c.25 1.16-.8 2.18-1.96 1.89l-2.68-.92c-2.36-.82-4.7 1.27-4.17 3.71l1.67 7.62c.53 2.44 3.53 3.36 5.34 1.63l-.01.01Z"/><path stroke="#000" stroke-linecap="round" stroke-linejoin="round" stroke-width="2" d="M223.01 185.12a35.65 35.65 0 0 1-5.94-7.67l-21.75-37.77a7.267 7.267 0 0 0-5.16-3.55l-25.31-3.93M189.69 192.22l6.51 3.86 7.29 10.17"/><path fill="#fff" d="m160.91 151.2 5.45-2.05 8.88 2.07"/><path stroke="#000" stroke-linecap="round" stroke-linejoin="round" stroke-width="2" d="m160.91 151.2 5.45-2.05 8.88 2.07"/><path fill="#fff" d="m173.29 144.14 2.78 8.91a3.178 3.178 0 0 1-3.62 1.7l-23.39-7.38c-2.39-.75-4.96.47-5.88 2.8-.94 2.38.16 5.08 2.51 6.12l18.77 8.32 13.74 18.53c2.4 2.92 5.29 5.4 8.54 7.33l2.96 1.75"/><path stroke="#000" stroke-linecap="round" stroke-linejoin="round" stroke-width="2" d="m173.29 144.14 2.78 8.91a3.178 3.178 0 0 1-3.62 1.7l-23.39-7.38c-2.39-.75-4.96.47-5.88 2.8-.94 2.38.16 5.08 2.51 6.12l18.77 8.32 13.74 18.53c2.4 2.92 5.29 5.4 8.54 7.33l2.96 1.75M165.81 142.79l7.48 1.35M180.44 143.93l-4.37 9.13"/><path stroke="#000" stroke-linecap="round" stroke-linejoin="round" stroke-width="2" d="M182.14 150.13c-.1.04-3 2.17-5.02 3.66a5.464 5.464 0 0 1-4.29.97l-1.62-.31"/><path fill="#000" stroke="#000" stroke-linecap="round" stroke-linejoin="round" stroke-width="2" d="m105.71 126.16-22.46-8.98-.8-9.13 10.76-.93 12.5 19.04Z"/><path fill="#fff" d="m50.51 89.26 9.09 19.83c1.22 2.66 3.06 4.99 5.36 6.79l12.4 9.71 6.87 6.43 1.04-1.01a4.524 4.524 0 0 0 .47-5.97l-10.84-14.4c-.82-1.09-.69-2.64.31-3.57.72-.68 1.76-.9 2.7-.58l7.08 2.42a8.38 8.38 0 0 1 3.32 2.11l9.46 9.78c1.06 1.09 2.26 2.04 3.57 2.8l4.36 2.55c1.36.79 3.1.4 3.99-.89.82-1.19.67-2.79-.35-3.81l-4.96-4.98c-.3-.3-.56-.63-.79-.98l-2.92-4.56c-.22-.34-.47-.65-.75-.94l-6.67-6.83c-.67-.69-.8-1.75-.31-2.58.54-.92 1.68-1.3 2.67-.88l9.64 4.04-1.64 1.99a3.937 3.937 0 0 0-.11 4.87l.8 1.05 6.26-2.59a4.215 4.215 0 0 0 2.55-3.22l.81-5.06c.3-1.89-.71-3.75-2.47-4.52l-.43-.19.26-7a4.207 4.207 0 0 0-3-4.19l-.35-.12-.5-4.95a4.194 4.194 0 0 0-3.55-3.73l-33.11-6.42a8.526 8.526 0 0 1-4.98-2.97l-2.59-3.16"/><path stroke="#fff" stroke-linecap="round" stroke-linejoin="round" stroke-width="2" d="m50.51 89.26 9.09 19.83c1.22 2.66 3.06 4.99 5.36 6.79l12.4 9.71 6.87 6.43 1.04-1.01a4.524 4.524 0 0 0 .47-5.97l-10.84-14.4c-.82-1.09-.69-2.64.31-3.57.72-.68 1.76-.9 2.7-.58l7.08 2.42a8.38 8.38 0 0 1 3.32 2.11l9.46 9.78c1.06 1.09 2.26 2.04 3.57 2.8l4.36 2.55c1.36.79 3.1.4 3.99-.89.82-1.19.67-2.79-.35-3.81l-4.96-4.98c-.3-.3-.56-.63-.79-.98l-2.92-4.56c-.22-.34-.47-.65-.75-.94l-6.67-6.83c-.67-.69-.8-1.75-.31-2.58.54-.92 1.68-1.3 2.67-.88l9.64 4.04-1.64 1.99a3.937 3.937 0 0 0-.11 4.87l.8 1.05 6.26-2.59a4.215 4.215 0 0 0 2.55-3.22l.81-5.06c.3-1.89-.71-3.75-2.47-4.52l-.43-.19.26-7a4.207 4.207 0 0 0-3-4.19l-.35-.12-.5-4.95a4.194 4.194 0 0 0-3.55-3.73l-33.11-6.42a8.526 8.526 0 0 1-4.98-2.97l-2.59-3.16"/><path stroke="#000" stroke-linecap="round" stroke-linejoin="round" stroke-width="2" d="m70.78 69.65 33.11 6.42c1.89.29 3.35 1.83 3.55 3.73M93.48 87.53l.98.98c.36.36.78.65 1.25.85l15.76 6.91c1.76.77 2.77 2.63 2.47 4.52l-.81 5.06a4.2 4.2 0 0 1-2.55 3.22l-6.26 2.59-.8-1.05a3.923 3.923 0 0 1 .11-4.87l1.64-1.99-9.64-4.04c-.99-.41-2.12-.03-2.67.88-.49.83-.36 1.89.31 2.58l6.67 6.83c.28.29.53.6.75.94l2.92 4.56c.23.35.49.68.79.98l4.96 4.98a3 3 0 0 1 .35 3.81 2.992 2.992 0 0 1-3.99.89l-4.36-2.55c-1.31-.77-2.51-1.71-3.57-2.8l-9.46-9.78a8.42 8.42 0 0 0-3.32-2.11l-7.08-2.42a2.68 2.68 0 0 0-2.7.58c-1 .94-1.14 2.48-.31 3.57l10.84 14.4a4.526 4.526 0 0 1-.47 5.97l-1.04 1.01-6.87-6.43-12.4-9.71c-2.3-1.8-4.14-4.13-5.36-6.79l-9.09-19.83M99.33 111.99l-2.41 2.42"/><path stroke="#000" stroke-linecap="round" stroke-linejoin="round" stroke-width="2" d="m111.03 96.07.26-7a4.207 4.207 0 0 0-3-4.19l-12.83-4.39c-.6-.21-1.15-.55-1.6-1.01l-1.2-1.23M105.27 103.74c-.17.73 0 1.57.35 2.23.35.66.87 1.21 1.45 1.68"/><path fill="#574CFA" stroke="#574CFA" stroke-linecap="round" stroke-linejoin="round" stroke-width="2" d="M46.53 84.33c10.3-.9 19.87-8.01 20.21-18.85L60.21 58C59.87 68.84 50.3 75.95 40 76.85l6.53 7.48Z"/><path stroke="#000" stroke-linecap="round" stroke-linejoin="round" stroke-width="2" d="m168.07 121.76 2.81-1.62M168.95 126.78l5.7.84M150.38 178.04l-2.98 2.97M157.26 181.01l-.58 6.7"/></svg>