<svg xmlns="http://www.w3.org/2000/svg" width="264" height="264" fill="none" viewBox="0 0 264 264"><path stroke="#000" stroke-linecap="round" stroke-linejoin="round" stroke-width="2" d="M162.27 175v10h-60v-10h50"/><path fill="#574CFA" stroke="#574CFA" stroke-linecap="round" stroke-linejoin="round" stroke-width="2" d="M159.27 187h-54v3h54v-3Z"/><path stroke="#000" stroke-linecap="round" stroke-linejoin="round" stroke-width="2" d="m147.27 85 20 10v5.86c0 2.65-1.05 5.2-2.93 7.07l-7.07 7.07-3.24-3.24a5.987 5.987 0 0 0-4.24-1.76h-10.23c-1.46 0-2.87.58-3.9 1.62a5.514 5.514 0 0 0-.51 7.21L162.28 155l-23.68 7.89a19.981 19.981 0 0 1-12.65 0L102.27 155l-3.47-8.67c-9.82-24.54-2.42-52.62 18.23-69.14L132.27 65v10h15c0 4.42-3.58 8-8 8h-2l2.93 2.93c3.91 3.91 3.91 10.24 0 14.14l-2.93 2.93"/><path stroke="#000" stroke-linecap="round" stroke-linejoin="round" stroke-width="2" d="m107.27 164.99 5.01 10.01h40l10-20h-50l-7.52-12.53c-12.88-21.46-7.9-49.13 11.64-64.77L132.28 65M132.27 75v4"/><path stroke="#000" stroke-linecap="round" stroke-linejoin="round" stroke-width="2" d="m135.66 111.62 6.24-6.24a5.987 5.987 0 0 1 4.24-1.76h9.2c2.12 0 4.16-.84 5.66-2.34l6.27-6.27M108.73 85.27 127.27 110 92 145.28M105.18 89.88 123.27 114M102.02 94.99 119.27 118M99.26 100.65 115.27 122M97 106.97 111.27 126M162.27 190v10h-60v-10M154.23 80.02l4.09-1.49M163.71 166.53l4.1 1.07M98.66 168.19l-4.25 1.08M98.2 161.33l-3.33-1.91M172.27 200h-80"/></svg>