<svg width="43" height="39" viewBox="0 0 43 39" fill="none" xmlns="http://www.w3.org/2000/svg">
<path d="M5.45658 17.5398H8.9334C10.9078 17.5398 12.5084 18.967 12.5084 20.7275V22.3213C12.5084 24.0818 14.109 25.5089 16.0834 25.5089C18.0578 25.5089 19.6584 26.9361 19.6584 28.6965V33.3904M14.2959 6.28035V8.77384C14.2959 10.9744 16.2966 12.7584 18.7646 12.7584H19.6584C21.6328 12.7584 23.2334 14.1855 23.2334 15.946C23.2334 17.7065 24.834 19.1336 26.8084 19.1336C28.7828 19.1336 30.3834 17.7065 30.3834 15.946C30.3834 14.1855 31.984 12.7584 33.9584 12.7584L35.8612 12.7584M26.8084 32.6618V28.6965C26.8084 26.9361 28.409 25.5089 30.3834 25.5089H35.8612M37.5334 19.1336C37.5334 27.0558 30.3308 33.478 21.4459 33.478C12.561 33.478 5.3584 27.0558 5.3584 19.1336C5.3584 11.2115 12.561 4.78931 21.4459 4.78931C30.3308 4.78931 37.5334 11.2115 37.5334 19.1336Z" stroke="#A1A1AA" stroke-width="1.5" stroke-linecap="round" stroke-linejoin="round"/>
</svg>
