<svg xmlns="http://www.w3.org/2000/svg" width="26" height="22" viewBox="0 0 26 22" fill="none">
  <path d="M14.4576 1.55751L19.9619 0.911079C21.4822 0.733524 22.8582 1.82098 23.0385 3.3413L24.6559 17.1047L24.9917 19.9511C25.1082 20.9332 23.979 21.5631 23.205 20.95L19.1545 17.7511L5.39127 19.3686C3.87096 19.5461 2.49492 18.4587 2.31459 16.9384L1.01899 5.92704C0.841433 4.40672 1.92896 3.03071 3.44927 2.85038L10.3295 2.04031" fill="white"/>
  <path d="M14.4576 1.55751L19.9619 0.911079C21.4822 0.733524 22.8582 1.82098 23.0385 3.3413L24.6559 17.1047L24.9917 19.9511C25.1082 20.9332 23.979 21.5631 23.205 20.95L19.1545 17.7511L5.39127 19.3686C3.87096 19.5461 2.49492 18.4587 2.31459 16.9384L1.01899 5.92704C0.841433 4.40672 1.92896 3.03071 3.44927 2.85038L10.3295 2.04031" stroke="#070E15" stroke-linecap="round" stroke-linejoin="round"/>
  <rect x="4.09753" y="6.83567" width="11.1502" height="0.557513" rx="0.278756" transform="rotate(-6.82992 4.09753 6.83567)" fill="#574CFA" stroke="#574CFA" stroke-width="0.557512"/>
  <rect x="4.6549" y="10.7383" width="15.22" height="0.557513" rx="0.278756" transform="rotate(-6.82992 4.6549 10.7383)" fill="#574CFA" stroke="#574CFA" stroke-width="0.557512"/>
  <rect x="5.21252" y="14.5674" width="7.90962" height="0.557513" rx="0.278756" transform="rotate(-6.82992 5.21252 14.5674)" fill="#574CFA" stroke="#574CFA" stroke-width="0.557512"/>
</svg>