<svg xmlns="http://www.w3.org/2000/svg" width="66" height="66" fill="none" viewBox="0 0 66 66"><path fill="#fff" d="m25.304 29.674 9.873-1.16a4.977 4.977 0 0 1 5.519 4.36l2.9 24.686.603 5.106c.209 1.761-1.816 2.891-3.205 1.791L33.73 58.72l-24.687 2.9a4.977 4.977 0 0 1-5.519-4.358L1.2 37.512a4.977 4.977 0 0 1 4.359-5.52l12.34-1.453"/><path stroke="#070E15" stroke-linecap="round" stroke-linejoin="round" stroke-width=".995" d="m25.304 29.674 9.873-1.16a4.977 4.977 0 0 1 5.519 4.36l2.9 24.686.603 5.106c.209 1.761-1.816 2.891-3.205 1.791L33.73 58.72l-24.687 2.9a4.977 4.977 0 0 1-5.519-4.358L1.2 37.512a4.977 4.977 0 0 1 4.359-5.52l12.34-1.453"/><path fill="#070E15" stroke="#070E15" stroke-linecap="round" stroke-linejoin="round" stroke-width=".995" d="m31.082 41.84 5.26-3.448 4.936-.583-.582-4.936-14.81 1.742.598 5.08c.258 2.205 2.747 3.365 4.598 2.145Z"/><path fill="#fff" stroke="#070E15" stroke-linecap="round" stroke-linejoin="round" stroke-width=".995" d="M27.34 4.41a4.974 4.974 0 0 0-4.36 5.518l2.901 24.687.603 5.106c.209 1.761 2.438 2.388 3.533 1l5.737-7.266 24.687-2.9a4.974 4.974 0 0 0 4.36-5.52l-2.325-19.75A4.974 4.974 0 0 0 56.959.926L27.335 4.41h.005Z"/><path stroke="#070E15" stroke-linecap="round" stroke-linejoin="round" stroke-width=".995" d="m17.985 26.046-2.479-2.135M21.025 24.837c-.204-.692-.413-1.379-.617-2.07"/><path fill="#070E15" stroke="#070E15" stroke-linecap="round" stroke-linejoin="round" stroke-width=".995" d="M46.871 10.709a3.22 3.22 0 0 0-2.811 3.583l-1.065.124a3.227 3.227 0 0 0-3.568-2.836 3.22 3.22 0 0 0-2.812 3.583 5.52 5.52 0 0 0 1.881 3.538l6.16 5.28 4.768-6.564a5.49 5.49 0 0 0 1.01-3.876 3.227 3.227 0 0 0-3.568-2.837l.005.005Z"/><path fill="#574CFA" stroke="#574CFA" stroke-linecap="round" stroke-linejoin="round" stroke-width=".995" d="M46.608 8.231a3.22 3.22 0 0 0-2.812 3.583l-1.065.125a3.227 3.227 0 0 0-3.568-2.837 3.22 3.22 0 0 0-2.811 3.583 5.518 5.518 0 0 0 1.88 3.538l6.161 5.28 4.767-6.564a5.49 5.49 0 0 0 1.01-3.877 3.227 3.227 0 0 0-3.568-2.836l.006.005Z"/><path stroke="#fff" stroke-linecap="round" stroke-linejoin="round" stroke-width=".995" d="M39.278 10.097a2.222 2.222 0 0 1 2.458 1.96M46.722 9.221a2.221 2.221 0 0 1 2.463 1.96"/><path stroke="#070E15" stroke-linecap="round" stroke-linejoin="round" stroke-width=".995" d="m8.913 39.422 17.262-1.911M9.68 46.339l24.736-2.737M10.5 53.753l14.854-1.647"/></svg>