<svg xmlns="http://www.w3.org/2000/svg" width="264" height="264" fill="none" viewBox="0 0 264 264"><path stroke="#070E15" stroke-linecap="round" stroke-linejoin="round" stroke-width="2" d="M144.868 192.62c2.92 2.4 7.24 1.97 9.64-.95 2.4-2.92 1.97-7.24-.95-9.64m0 0-10.59-8.679m10.59 8.679c2.92 2.4 7.24 1.97 9.64-.95 2.4-2.92 1.97-7.24-.95-9.64m0 0-10.59-8.68m10.59 8.68c2.92 2.4 7.24 1.97 9.64-.95 2.4-2.92 1.97-7.239-.95-9.639m0 0-10.59-8.681m10.59 8.681c2.92 2.4 7.24 1.969 9.64-.951 2.4-2.92 1.97-7.24-.95-9.64l-47.66-39.07"/><path fill="#574CFA" stroke="#574CFA" stroke-linecap="round" stroke-linejoin="round" stroke-width="2" d="m174.308 145.92 17.37-21.179c9.59-11.7 7.88-28.96-3.82-38.55-11.7-9.59-28.96-7.88-38.55 3.82l-4.34 5.3-11.02-2.5c-2.5-.57-5.13-.12-7.31 1.25l-33.25 20.949a22.147 22.147 0 0 0 23.09 3.091l15.45-6.91 42.36 34.729h.02Z"/><path stroke="#070E15" stroke-linecap="round" stroke-linejoin="round" stroke-width="2" d="M110.758 93.82c-11.7-9.59-28.96-7.88-38.55 3.82-9.59 11.7-7.88 28.961 3.82 38.551l21.18 17.37"/><path fill="#574CFA" stroke="#574CFA" stroke-linecap="round" stroke-linejoin="round" stroke-width="2" d="M103.528 167.52a6.853 6.853 0 0 1-9.64.949 6.851 6.851 0 0 1-.95-9.639l4.34-5.3a6.853 6.853 0 0 1 9.64-.95 6.851 6.851 0 0 1 .95 9.639l-4.34 5.301Z"/><path fill="#574CFA" stroke="#574CFA" stroke-linecap="round" stroke-linejoin="round" stroke-width="2" d="M114.118 176.2a6.853 6.853 0 0 1-9.64.95 6.854 6.854 0 0 1-.95-9.641l4.34-5.299a6.853 6.853 0 0 1 9.64-.951 6.854 6.854 0 0 1 .95 9.641l-4.34 5.3Z"/><path fill="#574CFA" stroke="#574CFA" stroke-linecap="round" stroke-linejoin="round" stroke-width="2" d="M124.708 184.889a6.853 6.853 0 0 1-9.64.951 6.853 6.853 0 0 1-.95-9.64l4.34-5.3a6.853 6.853 0 0 1 9.64-.95c2.92 2.4 3.35 6.71.95 9.64l-4.34 5.299Z"/><path fill="#574CFA" stroke="#574CFA" stroke-linecap="round" stroke-linejoin="round" stroke-width="2" d="M135.298 193.57c2.4-2.92 1.97-7.241-.95-9.641-2.92-2.4-7.24-1.969-9.64.951-2.4 2.92-1.97 7.24.95 9.64 2.92 2.4 7.24 1.97 9.64-.95Z"/><path stroke="#070E15" stroke-linecap="round" stroke-linejoin="round" stroke-width="2" d="M121.188 77.58c-1.14-2.42-2.29-4.84-3.43-7.26M135.898 75.31c.84-2.44 1.69-4.87 2.53-7.31M107.868 162.23l-4.34 5.3a6.853 6.853 0 0 1-9.64.95"/><path stroke="#070E15" stroke-linecap="round" stroke-linejoin="round" stroke-width="2" d="m118.458 170.91-4.34 5.3a6.853 6.853 0 0 1-9.64.95 6.851 6.851 0 0 1-.95-9.639"/><path stroke="#070E15" stroke-linecap="round" stroke-linejoin="round" stroke-width="2" d="m129.048 179.59-4.34 5.3a6.853 6.853 0 0 1-9.64.95 6.853 6.853 0 0 1-.95-9.64"/><path stroke="#070E15" stroke-linecap="round" stroke-linejoin="round" stroke-width="2" d="M124.708 184.89c-2.4 2.92-1.97 7.24.95 9.64 2.92 2.4 7.24 1.97 9.64-.95M174.308 145.92l17.36-21.19M93.398 115a22.147 22.147 0 0 0 23.09 3.09l15.45-6.91"/></svg>