<svg xmlns="http://www.w3.org/2000/svg" width="42" height="66" fill="none" viewBox="0 0 42 66"><path fill="#fff" d="M36.506 33.373a19.111 19.111 0 0 1 4.04 9.141c1.611 10.464-5.564 20.257-16.033 21.867-10.463 1.61-20.256-5.565-21.866-16.033C1.037 37.884 8.212 28.09 18.68 26.48c4.578-.705 9.03.273 12.721 2.473"/><path stroke="#070E15" stroke-linecap="round" stroke-linejoin="round" stroke-width=".959" d="M36.506 33.373a19.111 19.111 0 0 1 4.04 9.141c1.611 10.464-5.564 20.257-16.033 21.867-10.463 1.61-20.256-5.565-21.866-16.033C1.037 37.884 8.212 28.09 18.68 26.48c4.578-.705 9.03.273 12.721 2.473"/><path fill="#fff" stroke="#070E15" stroke-linecap="round" stroke-linejoin="round" stroke-width=".959" d="M21.6 62.21c9.264 0 16.776-7.512 16.776-16.777s-7.511-16.776-16.777-16.776c-9.265 0-16.776 7.51-16.776 16.776 0 9.265 7.51 16.776 16.776 16.776Z"/><path fill="#fff" stroke="#070E15" stroke-linecap="round" stroke-linejoin="round" stroke-width=".959" d="m21.642 36.48 2.335 2.89c.287.355.714.575 1.17.604l3.71.22c1.245.072 1.95 1.467 1.265 2.517l-2.028 3.111c-.25.383-.326.858-.21 1.299l.934 3.595c.316 1.208-.791 2.305-1.999 1.984l-3.585-.968a1.612 1.612 0 0 0-1.3.201l-3.13 2.004c-1.054.67-2.44-.043-2.501-1.29l-.187-3.71a1.618 1.618 0 0 0-.595-1.174l-2.87-2.358c-.964-.791-.715-2.334.45-2.78l3.47-1.328a1.63 1.63 0 0 0 .935-.925l1.356-3.46c.456-1.165 1.999-1.4 2.785-.428l-.005-.004Z"/><path fill="#fff" d="m28.008 24.075-.216-1.419L8.839 25.57l.221 1.424"/><path stroke="#070E15" stroke-linecap="round" stroke-linejoin="round" stroke-width=".959" d="m28.008 24.075-.216-1.419L8.839 25.57l.221 1.424"/><path fill="#fff" stroke="#574CFA" stroke-linecap="round" stroke-linejoin="round" stroke-width=".959" d="m.82 4.983 7.655 18.22 4.736-.73L5.556 4.255l-4.736.73Z"/><path fill="#574CFA" stroke="#574CFA" stroke-linecap="round" stroke-linejoin="round" stroke-width=".959" d="m5.556 4.254 7.655 18.22 9.476-1.457-7.655-18.224-9.476 1.461Z"/><path fill="#fff" stroke="#574CFA" stroke-linecap="round" stroke-linejoin="round" stroke-width=".959" d="m19.768 2.064-4.736.729 7.655 18.224 4.736-.734-7.655-18.219ZM10.297 3.526 8.475 23.202l4.736-.728 1.821-19.681-4.735.733Z"/><path fill="#574CFA" stroke="#574CFA" stroke-linecap="round" stroke-linejoin="round" stroke-width=".959" d="M15.033 2.793 13.21 22.474l9.476-1.457L24.51 1.335l-9.476 1.458Z"/><path fill="#fff" stroke="#574CFA" stroke-linecap="round" stroke-linejoin="round" stroke-width=".959" d="m29.244.607-4.735.728-1.822 19.682 4.736-.734L29.245.607Z"/><path stroke="#070E15" stroke-linecap="round" stroke-linejoin="round" stroke-width=".959" d="m10.297 3.526-.91 9.836M34.704 25.292c.6-1.543 1.198-3.087 1.797-4.63M38.505 27.636c.891-.474 1.783-.949 2.674-1.428"/></svg>