<svg xmlns="http://www.w3.org/2000/svg" width="264" height="264" fill="none" viewBox="0 0 264 264"><path fill="#574CFA" d="M130.396 80.545c-7.661-10.251-10.729-8.528-10.55-8.657a18.502 18.502 0 0 1 30.774-2.212 18.502 18.502 0 0 1 3.725 13.38"/><path stroke="#574CFA" stroke-linecap="round" stroke-linejoin="round" stroke-width="3.259" d="M130.396 80.545c-7.661-10.251-10.729-8.528-10.55-8.657a18.502 18.502 0 0 1 30.774-2.212 18.502 18.502 0 0 1 3.725 13.38"/><path stroke="#0A0D0E" stroke-linecap="round" stroke-linejoin="round" stroke-width="3.259" d="M111.846 84.41a76.322 76.322 0 0 0-28.422 15.462M232.41 125.086a8.206 8.206 0 0 1-5.919 6.48 8.199 8.199 0 0 1-8.387-2.585 5.268 5.268 0 0 1-1.405-3.347 3.181 3.181 0 0 1 1.853-2.989c1.773-.677 3.696.807 4.563 2.501a8.355 8.355 0 0 1-1.06 9.205 8.353 8.353 0 0 1-8.902 2.57c-3.119-.996-4.882-4.353-5.778-7.461-8.249-27.895-37.21-48.497-71.669-48.497-1.903 0-2.789.06-4.662.18"/><path stroke="#0A0D0E" stroke-linecap="round" stroke-linejoin="round" stroke-width="3.259" d="M95.22 84.082a44.783 44.783 0 0 0-5.67-6.974l-3.496-3.507a6.575 6.575 0 0 0-4.632-1.872 6.545 6.545 0 0 0-6.546 6.545v30.494a62.712 62.712 0 0 0-4.572 6.546 9.243 9.243 0 0 1-5.639 4.233l-12.95 3.178a4.124 4.124 0 0 0-.44.11c-4.572 1.395-8.118 11.138-8.118 22.913 0 11.776 3.546 21.559 8.119 22.913l.438.11 12.951 3.158a9.09 9.09 0 0 1 5.659 4.095 64.91 64.91 0 0 0 7.97 10.56 13.615 13.615 0 0 1 3.516 7.92l2.152 21.528a9.244 9.244 0 0 0 9.205 8.328h10.959c1.29 0 2.566-.271 3.745-.797a9.275 9.275 0 0 0 3.756.797h10.959a9.242 9.242 0 0 0 9.205-8.328l.568-5.619c1.066 0 2.142.07 3.227.07 1.086 0 2.162 0 3.238-.07l.558 5.619a9.248 9.248 0 0 0 9.205 8.328h11.018a9.258 9.258 0 0 0 3.746-.797 9.192 9.192 0 0 0 3.746.797h11.008a9.254 9.254 0 0 0 9.215-8.328l2.631-26.38c12.203-11.546 19.665-26.978 19.665-43.944"/><path stroke="#0A0D0E" stroke-linecap="round" stroke-linejoin="round" stroke-width="3.259" d="M167.177 224.41a9.245 9.245 0 0 1-9.205-8.328l-.409-4.095a3.69 3.69 0 0 0-1.5-2.62 3.688 3.688 0 0 0-2.953-.628 96.341 96.341 0 0 1-5.678.997M96.843 200.909a9.213 9.213 0 0 1 4.772 7.203l.797 7.97a9.256 9.256 0 0 0 9.215 8.328M190.04 189.711a71.631 71.631 0 0 1-8.667 6.974M58.22 127.806c2.092 4.244 3.416 10.709 3.416 17.932 0 12.771-4.144 23.132-9.254 23.132M54.543 141.205v9.255M49.144 141.205v9.255M88.734 114.895l1.843-4.632M121.151 90.238c0 5.922 2.351 11.601 6.535 15.791l5.43 5.419a3.823 3.823 0 0 0 6.535-2.71 44.679 44.679 0 0 0-13.08-31.59l-3.507-3.507a6.535 6.535 0 0 0-7.127-1.414 6.541 6.541 0 0 0-4.041 6.047v30.464M58.568 170.504l8.657 2.112a23.272 23.272 0 0 0 21.917-6.137M60.8 224.41h152.373M113.361 53.716l-1.933-2.311M140.348 45.617l.777-6.166M168.721 62.484l6.167-3.487"/></svg>