<svg xmlns="http://www.w3.org/2000/svg" width="264" height="264" fill="none" viewBox="0 0 264 264"><path fill="#0A0C0E" d="M61.38 153.36a2 2 0 1 0 4 0 9.5 9.5 0 0 1 9.5-9.5 9.5 9.5 0 0 1 9.5 9.5 2 2 0 1 0 4 0c0-7.456-6.044-13.5-13.5-13.5s-13.5 6.044-13.5 13.5ZM75.33 137.37a2 2 0 0 0 2-2v-3a2 2 0 1 0-4 0v3a2 2 0 0 0 2 2ZM63.52 142a2 2 0 0 0 0-2.83l-2.32-2.31a2 2 0 1 0-2.83 2.83l2.32 2.31c.373.376.88.588 1.41.59.533 0 1.044-.212 1.42-.59ZM56.33 151.37h-3a2 2 0 1 0 0 4h3a2 2 0 1 0 0-4ZM91.33 153.37a2 2 0 0 0 2 2h3a2 2 0 1 0 0-4h-3a2 2 0 0 0-2 2ZM87.62 142.6A2.001 2.001 0 0 0 89 142l2.32-2.32a2.001 2.001 0 1 0-2.83-2.83l-2.32 2.32a2 2 0 0 0 1.41 3.42l.04.01Z"/><path fill="#0A0C0E" d="m235.91 202.29 3.35-12c.048-.176.07-.358.07-.54v-8.33a2 2 0 0 0-2-2h-39.05a8.469 8.469 0 0 0-6.81 3.38 8.706 8.706 0 0 0-.71 1.11 8.574 8.574 0 0 0-4.81-1.49h-3.33a8.59 8.59 0 0 0-4.74 1.44c-.08-.14-.16-.28-.25-.42a7.711 7.711 0 0 0-1.08-1.4c21.673-29.322 21.955-69.277.698-98.902-21.257-29.624-59.199-42.152-93.917-31.01S25.048 95.538 25 132a83.491 83.491 0 0 0 15.33 48.4c.246.347.596.606 1 .74v23.36a11.77 11.77 0 0 0 3 7.84h-17a2 2 0 1 0 0 4h210a2 2 0 1 0 0-4H226.7a15.16 15.16 0 0 0 9.21-10.05ZM157 183.37h10.75l-16.68 16.73-7.9 7.89a10.821 10.821 0 0 1-3.26-2.13 11.013 11.013 0 0 1-2.29-3.07L157 183.37Zm-52.71 3.44-19.85 7.27-1.25.2A11.82 11.82 0 0 0 73.33 206v2.4a2 2 0 1 0 4 0V206a7.82 7.82 0 0 1 6.56-7.74h.14c.103.006.207.006.31 0 .11.01.22.01.33 0l19.66-3.26v9.56a7.85 7.85 0 0 1-7.84 7.84H53.18a7.85 7.85 0 0 1-7.85-7.84v-42.19h59l-.04 24.44Zm3.71 25.56h-2.66a11.76 11.76 0 0 0 3-7.84V194.3l17.33-2.87a2 2 0 0 0 1.67-2v-8.2a1.998 1.998 0 0 0-2.68-1.88l-16.32 6v-48a11.86 11.86 0 0 0-4.81-9.53l-12-8.86a7.891 7.891 0 0 1-3.19-6.32v-3.27a2 2 0 0 0-.69-1.5 2 2 0 0 1-1.31.5h-1.73c-.18.303-.276.648-.28 1v3.23a11.88 11.88 0 0 0 4.81 9.53l12 8.87a7.883 7.883 0 0 1 3.18 6.31v21.06h-59v-20.65a7.86 7.86 0 0 1 3.19-6.31l12-8.86a11.87 11.87 0 0 0 4.82-9.55v-3.63a2 2 0 0 0-.27-1h-1.73a2 2 0 0 1-1.31-.5 2 2 0 0 0-.69 1.5V113a7.881 7.881 0 0 1-3.18 6.31l-12 8.86a11.91 11.91 0 0 0-4.81 9.53v37c-18.095-28.771-16.035-65.835 5.137-92.424 21.172-26.59 56.833-36.897 88.926-25.705S189.014 98.01 189.06 132a79.646 79.646 0 0 1-15.88 47.81c-.22-.08-.44-.14-.66-.2l-.38-.08a4.595 4.595 0 0 0-.52-.09h-.32a8.61 8.61 0 0 0-.88 0h-39a2 2 0 0 0-2 2v8.33c.002.183.029.364.08.54l3.34 12c.13.46.29.91.45 1.34 0 .12.1.23.14.34.14.34.29.66.44 1 .06.1.11.21.16.31.18.34.37.673.57 1l.13.2c.25.38.51.76.8 1.12a79.731 79.731 0 0 1-26.53 4.44c-.355.013-.7.12-1 .31Zm25.69 0c1.7-.52 3.37-1.11 5-1.74a15.642 15.642 0 0 0 3.28 1.74h-8.3.02Zm32.4 0a14.734 14.734 0 0 0 3.1-1.62 15.43 15.43 0 0 0 1.36-1 15.35 15.35 0 0 0 1.23-1.19l.07-.08c.355-.371.689-.761 1-1.17l.15-.31c.316-.441.61-.899.88-1.37l.07-.14c.232-.422.442-.856.63-1.3.06-.13.11-.25.16-.38.208-.502.385-1.016.53-1.54l3.36-12.07a8.15 8.15 0 0 0 .21-1c.05-.32.08-.64.1-1a4.558 4.558 0 0 1 3.67-1.88H186a4.56 4.56 0 0 1 3.78 2c.036.622.136 1.239.3 1.84l.92 3.32-2.3.84-.1.05a11.8 11.8 0 0 0-9.27 11.63v2.4a2 2 0 1 0 4 0V206a7.82 7.82 0 0 1 6.56-7.74l2.26-.38 1.23 4.44a15.192 15.192 0 0 0 9.22 10.08l-36.51-.03Zm62.26-24.72-.12.13-4.88 4.88-16.12 16.12a11.158 11.158 0 0 1-7-3.73l10.24-10.24 4.89-4.89 1.64-1.64 4.91-4.91h10.75l-.29.28-4.02 4Z"/><path fill="#0A0C0E" d="M59.33 170.37h30a2 2 0 1 0 0-4h-30a2 2 0 1 0 0 4ZM81.33 174.37h-13a2 2 0 1 0 0 4h13a2 2 0 1 0 0-4Z"/><path fill="#574CFA" d="M88.33 106.37V85.56a2 2 0 0 1-2 1.81h-15a2 2 0 1 1 0-4h15a2 2 0 0 1 1.93 1.48 8.57 8.57 0 0 0-8.49-7.48H69.9a8.57 8.57 0 0 0-8.57 8.56v20.44a2 2 0 0 0 2 2h23a2 2 0 0 0 1.31-.5 2 2 0 0 0 .69-1.5Z"/><path fill="#0A0C0E" d="M86.33 83.37h-15a2 2 0 1 0 0 4h15a2 2 0 0 0 2-1.81 1.37 1.37 0 0 0 0-.19 2 2 0 0 0-2-2Z"/></svg>