<svg xmlns="http://www.w3.org/2000/svg" width="264" height="264" fill="none" viewBox="0 0 264 264"><path fill="#574CFA" d="M193.88 48h-68a2 2 0 0 0-2 2v36a2 2 0 0 0 2 2h68a2 2 0 0 0 2-2V50a2 2 0 0 0-2-2Z"/><path fill="#0A0C0E" d="M237.1 210.69H220l-10.47-80.56a13.21 13.21 0 0 0-4-7.84h12.36a2 2 0 1 0 0-4l-55-.18V115h55a2 2 0 1 0 0-4h-55.73l-5.5-11h10.63l3.22 6.44a1.999 1.999 0 1 0 3.58-1.78l-3.78-7.55a2 2 0 0 0-1.79-1.11h25.36a2 2 0 1 0 0-4h-68a2 2 0 1 0 0 4h27.55a2 2 0 0 0-1.79 2.89l6 12.11h-38.87a44.468 44.468 0 0 0-1.77-7.93 2.001 2.001 0 0 0-2.66-1.26 38.101 38.101 0 0 0-12.55 9.19 1.873 1.873 0 0 0-.41 0h-5.5V93a2 2 0 0 0-2-2h-19a2 2 0 0 0-2 2v1h-.75a6.26 6.26 0 0 0-6.25 6.25v3.17a5.59 5.59 0 0 0 5.59 5.58h1.41v2h-12a2 2 0 1 0 0 4h38c-.605 1-1.137 2.043-1.59 3.12a2.007 2.007 0 0 0-.43-.05L85 118H60.88a2 2 0 1 0 0 4h12a13.308 13.308 0 0 0-3.72 7.71l-.66 5.59a21.648 21.648 0 0 0-9-4.38c-.36-.073-.72-.133-1.08-.18-.226-.177-.49-.3-.77-.36S31.39 124.81 24.09 148a2 2 0 0 0 .81 2.27 22.435 22.435 0 0 0 11.63 3.15c2.33.012 4.643-.377 6.84-1.15 6.76-2.4 11.83-8.26 15.1-17.45.073.005.147.005.22 0a19.208 19.208 0 0 1 9.23 5.23l-1.4 11.45a32.589 32.589 0 0 0-12.12.66 1.998 1.998 0 0 0-1.24 1 2 2 0 0 0-.07 1.61c2.72 7 6.51 11.82 11.29 14.28l-5.08 41.64H42.19a2 2 0 1 0 0 4H237.1a2 2 0 1 0 0-4ZM72.88 105h-1.41a1.59 1.59 0 0 1-1.59-1.58v-3.17A2.25 2.25 0 0 1 72.13 98h.75v7Zm19 5h-15V95h15v15ZM42 148.49a18.587 18.587 0 0 1-13.59-.85c3.36-8.81 10.08-12.22 16.13-13.4-.713.447-1.423.937-2.13 1.47a2 2 0 0 0 2.4 3.2 20.19 20.19 0 0 1 9.39-4.18c-2.81 7.27-6.9 11.89-12.2 13.76ZM119 115h39.87v3.13l-40-.13a24.43 24.43 0 0 0 .13-3Zm-5.16-8.51c2.06 8 1.39 14.39-2 19.1a18.16 18.16 0 0 1-9.6 6.55c1.34-5.62 2.94-10.43 4.82-13.26a2 2 0 0 0-3.33-2.21 38.993 38.993 0 0 0-4.23 10.27c.11-11.61 9.97-18.13 14.35-20.45h-.01ZM112 161.83a10.458 10.458 0 0 0-5.93-.52 17.253 17.253 0 0 1 10.07-3.51 27.783 27.783 0 0 1 8 .83c-3.23 5.74-7.18 9.1-11.75 10-3.289.56-6.67.007-9.61-1.57 2.39-1.62 5.12-2.55 7.8-1.5a2 2 0 1 0 1.42-3.73Zm-10.7-25.33a22.966 22.966 0 0 0 5-1.58l2.62 20.3a20.648 20.648 0 0 0-11.62 10.94.997.997 0 0 0-.07.24l-.08.07c.63-7.19 1.99-19.39 4.15-29.97Zm-28.15-6.31a9.33 9.33 0 0 1 9.26-8.19l13.6.06a25.64 25.64 0 0 0 .78 13.33c.095.287.256.547.47.76-1.12 5.54-2 11.4-2.72 16.77-1.66-10.92-12.18-17.51-12.32-17.6a1.998 1.998 0 0 0-2.83.81 35.49 35.49 0 0 0-2.93 7.87 48.37 48.37 0 0 0-4.34-5.38l1.03-8.43Zm20.22 33.23c-.39 3.91-.63 6.87-.74 8.23a3.264 3.264 0 0 1-.19.27c-.06-1.23-.19-3.17-.49-5.54.142-.14.26-.302.35-.48.4-.808.756-1.635 1.07-2.48ZM85.62 150a2 2 0 0 0-1.12 2.6 52.15 52.15 0 0 1 2.59 8.87 14.502 14.502 0 0 1-5.9-6c-2.07-4.17-1.81-9.34.78-15.4a27.802 27.802 0 0 1 5.5 5.8 16.79 16.79 0 0 1 3.09 12.8 54.509 54.509 0 0 0-2.34-7.52 2 2 0 0 0-2.6-1.15Zm2.51 18.21c-.21-.64-.46-1.36-.73-2.13l.5.21c.1.71.17 1.34.23 1.95v-.03ZM71.47 144a58.007 58.007 0 0 1 4.37 6.46c.108 1.826.5 3.624 1.16 5.33a20.467 20.467 0 0 0-6.54-3.39l1.01-8.4Zm-13.73 11.56a27.572 27.572 0 0 1 8-.16 17.5 17.5 0 0 1 9.2 3.87 10.403 10.403 0 0 0-5.65-.3 2 2 0 1 0 .87 3.9c3-.66 5.64.88 7.81 3a14.743 14.743 0 0 1-9.36.61c-4.49-1.25-8.14-4.93-10.87-10.92Zm45.93 55.13a4.21 4.21 0 0 0 .51-1.63l2-28.06h-4l-1.98 27.69a.35.35 0 0 1-.34.31H77.45a.34.34 0 0 1-.33-.22L75.17 181h-3a4.252 4.252 0 0 1-1.07-.15l2 28.3c.066.539.232 1.062.49 1.54H63.33l4.9-40.16c1.311.306 2.653.46 4 .46 2.92-.02 5.802-.668 8.45-1.9a32.407 32.407 0 0 1 1.79 2.91h15c.58-.7 1.24-1.45 2-2.21 1.505.947 3.13 1.69 4.83 2.21h2.25a4.343 4.343 0 0 1 2.52.82h.77c.43 0 .87 0 1.3-.06l4.9 37.9-12.37.03Zm16.4 0-5-38.68c5.49-1.79 10.08-6.39 13.65-13.72a1.998 1.998 0 0 0-1.08-2.74 31.717 31.717 0 0 0-14.88-1.36L110 132.84a20.61 20.61 0 0 0 5.1-4.92A19.9 19.9 0 0 0 118 122l55.12.18a13.152 13.152 0 0 0-4 8l-9.9 80.54-39.15-.03Zm43.15 0 9.84-80a9.31 9.31 0 0 1 9.26-8.14l14 .07a9.33 9.33 0 0 1 9.2 8.07l10.48 80h-52.78Z"/><path fill="#574CFA" d="M110.88 176.66v-.32a4.35 4.35 0 0 0-4.33-4.34H72.22a4.35 4.35 0 0 0-4.34 4.34v.32a4.33 4.33 0 0 0 3.27 4.19c.349.095.708.146 1.07.15h34.33a4.34 4.34 0 0 0 4.33-4.34Z"/></svg>